<?xml version="1.0" encoding="UTF-8"?>
<svg width="226px" height="234px" viewBox="0 0 226 234" version="1.1" xmlns="http://www.w3.org/2000/svg" xmlns:xlink="http://www.w3.org/1999/xlink">
    <title>Capa_1</title>
    <defs>
        <filter x="-68.8%" y="-64.2%" width="237.5%" height="228.3%" filterUnits="objectBoundingBox" id="filter-1">
            <feOffset dx="0" dy="20" in="SourceAlpha" result="shadowOffsetOuter1"></feOffset>
            <feGaussianBlur stdDeviation="10" in="shadowOffsetOuter1" result="shadowBlurOuter1"></feGaussianBlur>
            <feColorMatrix values="0 0 0 0 0   0 0 0 0 0   0 0 0 0 0  0 0 0 0.3 0" type="matrix" in="shadowBlurOuter1" result="shadowMatrixOuter1"></feColorMatrix>
            <feMerge>
                <feMergeNode in="shadowMatrixOuter1"></feMergeNode>
                <feMergeNode in="SourceGraphic"></feMergeNode>
            </feMerge>
        </filter>
    </defs>
    <g id="Page-1" stroke="none" stroke-width="1" fill="none" fill-rule="evenodd">
        <g id="Walkthrough" transform="translate(-66.000000, -29.000000)" fill="#FFFFFF">
            <g id="idea-(1)" filter="url(#filter-1)" transform="translate(123.000000, 86.000000)">
                <g id="Group">
                    <path d="M55.5555556,17.7777778 C34.7244444,17.7777778 17.7777778,34.7244444 17.7777778,55.5555556 C17.7777778,71.36 27.5355556,85.36 42.2222222,90.8888889 L42.2222222,111.111111 C42.2222222,112.34 43.2155556,113.333333 44.4444444,113.333333 L46.6666667,113.333333 L46.6666667,117.777778 C46.6666667,119.006667 47.66,120 48.8888889,120 L62.2222222,120 C63.4511111,120 64.4444444,119.006667 64.4444444,117.777778 L64.4444444,113.333333 L66.6666667,113.333333 C67.8955556,113.333333 68.8888889,112.34 68.8888889,111.111111 L68.8888889,90.8888889 C83.5755556,85.36 93.3333333,71.36 93.3333333,55.5555556 C93.3333333,34.7244444 76.3866667,17.7777778 55.5555556,17.7777778 Z M62.2222222,108.888889 C60.9933333,108.888889 60,109.882222 60,111.111111 L60,115.555556 L51.1111111,115.555556 L51.1111111,111.111111 C51.1111111,109.882222 50.1177778,108.888889 48.8888889,108.888889 L46.6666667,108.888889 L46.6666667,97.7777778 L64.4444444,97.7777778 L64.4444444,108.888889 L62.2222222,108.888889 Z M65.9733333,87.2044444 C65.06,87.5044444 64.4444444,88.3577778 64.4444444,89.3155556 L64.4444444,93.3333333 L46.6666667,93.3333333 L46.6666667,89.3155556 C46.6666667,88.3555556 46.0511111,87.5044444 45.1377778,87.2044444 C31.4333333,82.6977778 22.2222222,69.9777778 22.2222222,55.5555556 C22.2222222,37.1755556 37.1755556,22.2222222 55.5555556,22.2222222 C73.9355556,22.2222222 88.8888889,37.1755556 88.8888889,55.5555556 C88.8888889,69.9777778 79.6777778,82.6977778 65.9733333,87.2044444 Z" id="Shape"></path>
                    <path d="M55.5555556,13.3333333 C56.7844444,13.3333333 57.7777778,12.34 57.7777778,11.1111111 L57.7777778,2.22222222 C57.7777778,0.993333333 56.7844444,0 55.5555556,0 C54.3266667,0 53.3333333,0.993333333 53.3333333,2.22222222 L53.3333333,11.1111111 C53.3333333,12.34 54.3266667,13.3333333 55.5555556,13.3333333 Z" id="Shape"></path>
                    <path d="M108.888889,53.3333333 L100,53.3333333 C98.7711111,53.3333333 97.7777778,54.3266667 97.7777778,55.5555556 C97.7777778,56.7844444 98.7711111,57.7777778 100,57.7777778 L108.888889,57.7777778 C110.117778,57.7777778 111.111111,56.7844444 111.111111,55.5555556 C111.111111,54.3266667 110.117778,53.3333333 108.888889,53.3333333 Z" id="Shape"></path>
                    <path d="M11.1111111,53.3333333 L2.22222222,53.3333333 C0.993333333,53.3333333 0,54.3266667 0,55.5555556 C0,56.7844444 0.993333333,57.7777778 2.22222222,57.7777778 L11.1111111,57.7777778 C12.34,57.7777778 13.3333333,56.7844444 13.3333333,55.5555556 C13.3333333,54.3266667 12.34,53.3333333 11.1111111,53.3333333 Z" id="Shape"></path>
                    <path d="M91.6977778,16.2711111 L85.4133333,22.5555556 C84.5444444,23.4244444 84.5444444,24.8288889 85.4133333,25.6977778 C85.8466667,26.1311111 86.4155556,26.3488889 86.9844444,26.3488889 C87.5533333,26.3488889 88.1222222,26.1311111 88.5555556,25.6977778 L94.84,19.4133333 C95.7088889,18.5444444 95.7088889,17.14 94.84,16.2711111 C93.9711111,15.4022222 92.5644444,15.4044444 91.6977778,16.2711111 Z" id="Shape"></path>
                    <path d="M22.5555556,85.4133333 L16.2711111,91.6977778 C15.4022222,92.5666667 15.4022222,93.9711111 16.2711111,94.84 C16.7044444,95.2733333 17.2733333,95.4911111 17.8422222,95.4911111 C18.4111111,95.4911111 18.98,95.2733333 19.4133333,94.84 L25.6977778,88.5555556 C26.5666667,87.6866667 26.5666667,86.2822222 25.6977778,85.4133333 C24.8288889,84.5444444 23.4244444,84.5444444 22.5555556,85.4133333 Z" id="Shape"></path>
                    <path d="M88.5555556,85.4133333 C87.6866667,84.5444444 86.2822222,84.5444444 85.4133333,85.4133333 C84.5444444,86.2822222 84.5444444,87.6866667 85.4133333,88.5555556 L91.6977778,94.84 C92.1311111,95.2733333 92.7,95.4911111 93.2688889,95.4911111 C93.8377778,95.4911111 94.4066667,95.2733333 94.84,94.84 C95.7088889,93.9711111 95.7088889,92.5666667 94.84,91.6977778 L88.5555556,85.4133333 Z" id="Shape"></path>
                    <path d="M22.5555556,25.6977778 C22.9888889,26.1311111 23.5577778,26.3488889 24.1266667,26.3488889 C24.6955556,26.3488889 25.2644444,26.1311111 25.6977778,25.6977778 C26.5666667,24.8288889 26.5666667,23.4244444 25.6977778,22.5555556 L19.4133333,16.2711111 C18.5444444,15.4022222 17.14,15.4022222 16.2711111,16.2711111 C15.4022222,17.14 15.4022222,18.5444444 16.2711111,19.4133333 L22.5555556,25.6977778 Z" id="Shape"></path>
                    <path d="M55.5555556,28.8888889 C40.8511111,28.8888889 28.8888889,40.8511111 28.8888889,55.5555556 C28.8888889,56.7844444 29.8822222,57.7777778 31.1111111,57.7777778 C32.34,57.7777778 33.3333333,56.7844444 33.3333333,55.5555556 C33.3333333,43.3022222 43.3022222,33.3333333 55.5555556,33.3333333 C56.7844444,33.3333333 57.7777778,32.34 57.7777778,31.1111111 C57.7777778,29.8822222 56.7844444,28.8888889 55.5555556,28.8888889 Z" id="Shape"></path>
                </g>
            </g>
        </g>
    </g>
</svg>